# Blender v2.92.0 OBJ File: ''
# www.blender.org
mtllib circle.mtl
o Circle
v 0.000000 0.000000 -1.000000
v -0.195090 0.000000 -0.980785
v -0.382683 0.000000 -0.923880
v -0.555570 0.000000 -0.831470
v -0.707107 0.000000 -0.707107
v -0.831470 0.000000 -0.555570
v -0.923880 0.000000 -0.382683
v -0.980785 0.000000 -0.195090
v -1.000000 0.000000 -0.000000
v -0.980785 0.000000 0.195090
v -0.923880 0.000000 0.382683
v -0.831470 0.000000 0.555570
v -0.707107 0.000000 0.707107
v -0.555570 0.000000 0.831470
v -0.382683 0.000000 0.923880
v -0.195090 0.000000 0.980785
v 0.000000 0.000000 1.000000
v 0.195091 0.000000 0.980785
v 0.382684 0.000000 0.923879
v 0.555571 0.000000 0.831469
v 0.707107 0.000000 0.707106
v 0.831470 0.000000 0.555570
v 0.923880 0.000000 0.382683
v 0.980785 0.000000 0.195089
v 1.000000 0.000000 -0.000001
v 0.980785 0.000000 -0.195091
v 0.923879 0.000000 -0.382684
v 0.831469 0.000000 -0.555571
v 0.707106 0.000000 -0.707108
v 0.555569 0.000000 -0.831470
v 0.382682 0.000000 -0.923880
v 0.195089 0.000000 -0.980786
v -0.195090 1.000000 -0.980785
v 0.000000 1.000000 -1.000000
v -0.382683 1.000000 -0.923880
v -0.555570 1.000000 -0.831470
v -0.707107 1.000000 -0.707107
v -0.831470 1.000000 -0.555570
v -0.923880 1.000000 -0.382683
v -0.980785 1.000000 -0.195090
v -1.000000 1.000000 -0.000000
v -0.980785 1.000000 0.195090
v -0.923880 1.000000 0.382683
v -0.831470 1.000000 0.555570
v -0.707107 1.000000 0.707107
v -0.555570 1.000000 0.831470
v -0.382683 1.000000 0.923880
v -0.195090 1.000000 0.980785
v 0.000000 1.000000 1.000000
v 0.195091 1.000000 0.980785
v 0.382684 1.000000 0.923879
v 0.555571 1.000000 0.831469
v 0.707107 1.000000 0.707106
v 0.831470 1.000000 0.555570
v 0.923880 1.000000 0.382683
v 0.980785 1.000000 0.195089
v 1.000000 1.000000 -0.000001
v 0.980785 1.000000 -0.195091
v 0.923879 1.000000 -0.382684
v 0.831469 1.000000 -0.555571
v 0.707106 1.000000 -0.707108
v 0.555569 1.000000 -0.831470
v 0.382682 1.000000 -0.923880
v 0.195089 1.000000 -0.980786
vt 0.000000 0.000000
vt 0.000000 0.000000
vt 0.000000 0.000000
vt 0.000000 0.000000
vt 0.000000 0.000000
vt 0.000000 0.000000
vt 0.000000 0.000000
vt 0.000000 0.000000
vt 0.000000 0.000000
vt 0.000000 0.000000
vt 0.000000 0.000000
vt 0.000000 0.000000
vt 0.000000 0.000000
vt 0.000000 0.000000
vt 0.000000 0.000000
vt 0.000000 0.000000
vt 0.000000 0.000000
vt 0.000000 0.000000
vt 0.000000 0.000000
vt 0.000000 0.000000
vt 0.000000 0.000000
vt 0.000000 0.000000
vt 0.000000 0.000000
vt 0.000000 0.000000
vt 0.000000 0.000000
vt 0.000000 0.000000
vt 0.000000 0.000000
vt 0.000000 0.000000
vt 0.000000 0.000000
vt 0.000000 0.000000
vt 0.000000 0.000000
vt 0.000000 0.000000
vt 0.000000 0.000000
vt 0.000000 0.000000
vt 0.000000 0.000000
vt 0.000000 0.000000
vt 0.000000 0.000000
vt 0.000000 0.000000
vt 0.000000 0.000000
vt 0.000000 0.000000
vt 0.000000 0.000000
vt 0.000000 0.000000
vt 0.000000 0.000000
vt 0.000000 0.000000
vt 0.000000 0.000000
vt 0.000000 0.000000
vt 0.000000 0.000000
vt 0.000000 0.000000
vt 0.000000 0.000000
vt 0.000000 0.000000
vt 0.000000 0.000000
vt 0.000000 0.000000
vt 0.000000 0.000000
vt 0.000000 0.000000
vt 0.000000 0.000000
vt 0.000000 0.000000
vt 0.000000 0.000000
vt 0.000000 0.000000
vt 0.000000 0.000000
vt 0.000000 0.000000
vt 0.000000 0.000000
vt 0.000000 0.000000
vt 0.000000 0.000000
vt 0.000000 0.000000
vn 0.0000 -1.0000 0.0000
vn 0.0000 1.0000 0.0000
vn 0.0000 -0.6857 0.7279
vn 0.1420 -0.6857 0.7139
vn 0.1420 0.6857 0.7139
vn 0.0000 0.6857 0.7279
vn -0.4044 -0.6857 -0.6052
vn -0.5147 -0.6857 -0.5147
vn -0.5147 0.6857 -0.5147
vn -0.4044 0.6857 -0.6052
vn 0.2785 -0.6857 -0.6725
vn 0.1420 -0.6857 -0.7139
vn 0.1420 0.6857 -0.7139
vn 0.2785 0.6857 -0.6725
vn 0.2785 -0.6857 0.6725
vn 0.2785 0.6857 0.6725
vn -0.6052 -0.6857 -0.4044
vn -0.6052 0.6857 -0.4044
vn 0.0000 -0.6857 -0.7279
vn 0.0000 0.6857 -0.7279
vn 0.4044 -0.6857 0.6052
vn 0.4044 0.6857 0.6052
vn -0.6725 -0.6857 -0.2785
vn -0.6725 0.6857 -0.2785
vn 0.5147 -0.6857 0.5147
vn 0.5147 0.6857 0.5147
vn -0.7139 -0.6857 -0.1420
vn -0.7139 0.6857 -0.1420
vn 0.6052 -0.6857 0.4044
vn 0.6052 0.6857 0.4044
vn -0.7279 -0.6857 0.0000
vn -0.7279 0.6857 0.0000
vn 0.6725 -0.6857 0.2785
vn 0.6725 0.6857 0.2785
vn -0.7139 -0.6857 0.1420
vn -0.7139 0.6857 0.1420
vn 0.7139 -0.6857 0.1420
vn 0.7139 0.6857 0.1420
vn -0.6725 -0.6857 0.2785
vn -0.6725 0.6857 0.2785
vn 0.7279 -0.6857 0.0000
vn 0.7279 0.6857 0.0000
vn -0.6052 -0.6857 0.4044
vn -0.6052 0.6857 0.4044
vn 0.7139 -0.6857 -0.1420
vn 0.7139 0.6857 -0.1420
vn -0.5147 -0.6857 0.5147
vn -0.5147 0.6857 0.5147
vn 0.6725 -0.6857 -0.2785
vn 0.6725 0.6857 -0.2785
vn -0.4044 -0.6857 0.6052
vn -0.4044 0.6857 0.6052
vn 0.6052 -0.6857 -0.4044
vn 0.6052 0.6857 -0.4044
vn -0.2785 -0.6857 0.6725
vn -0.2785 0.6857 0.6725
vn -0.1420 -0.6857 -0.7139
vn -0.1420 0.6857 -0.7139
vn 0.5147 -0.6857 -0.5147
vn 0.5147 0.6857 -0.5147
vn -0.1420 -0.6857 0.7139
vn -0.1420 0.6857 0.7139
vn -0.2785 -0.6857 -0.6725
vn -0.2785 0.6857 -0.6725
vn 0.4044 -0.6857 -0.6052
vn 0.4044 0.6857 -0.6052
usemtl None
s off
f 2/1/1 1/2/1 32/3/1 31/4/1 30/5/1 29/6/1 28/7/1 27/8/1 26/9/1 25/10/1 24/11/1 23/12/1 22/13/1 21/14/1 20/15/1 19/16/1 18/17/1 17/18/1 16/19/1 15/20/1 14/21/1 13/22/1 12/23/1 11/24/1 10/25/1 9/26/1 8/27/1 7/28/1 6/29/1 5/30/1 4/31/1 3/32/1
f 33/33/2 35/34/2 36/35/2 37/36/2 38/37/2 39/38/2 40/39/2 41/40/2 42/41/2 43/42/2 44/43/2 45/44/2 46/45/2 47/46/2 48/47/2 49/48/2 50/49/2 51/50/2 52/51/2 53/52/2 54/53/2 55/54/2 56/55/2 57/56/2 58/57/2 59/58/2 60/59/2 61/60/2 62/61/2 63/62/2 64/63/2 34/64/2
s 1
f 17/18/3 18/17/4 50/49/5 49/48/6
f 4/31/7 5/30/8 37/36/9 36/35/10
f 31/4/11 32/3/12 64/63/13 63/62/14
f 18/17/4 19/16/15 51/50/16 50/49/5
f 5/30/8 6/29/17 38/37/18 37/36/9
f 32/3/12 1/2/19 34/64/20 64/63/13
f 19/16/15 20/15/21 52/51/22 51/50/16
f 6/29/17 7/28/23 39/38/24 38/37/18
f 20/15/21 21/14/25 53/52/26 52/51/22
f 7/28/23 8/27/27 40/39/28 39/38/24
f 21/14/25 22/13/29 54/53/30 53/52/26
f 8/27/27 9/26/31 41/40/32 40/39/28
f 22/13/29 23/12/33 55/54/34 54/53/30
f 9/26/31 10/25/35 42/41/36 41/40/32
f 23/12/33 24/11/37 56/55/38 55/54/34
f 10/25/35 11/24/39 43/42/40 42/41/36
f 24/11/37 25/10/41 57/56/42 56/55/38
f 11/24/39 12/23/43 44/43/44 43/42/40
f 25/10/41 26/9/45 58/57/46 57/56/42
f 12/23/43 13/22/47 45/44/48 44/43/44
f 26/9/45 27/8/49 59/58/50 58/57/46
f 13/22/47 14/21/51 46/45/52 45/44/48
f 27/8/49 28/7/53 60/59/54 59/58/50
f 14/21/51 15/20/55 47/46/56 46/45/52
f 1/2/19 2/1/57 33/33/58 34/64/20
f 28/7/53 29/6/59 61/60/60 60/59/54
f 15/20/55 16/19/61 48/47/62 47/46/56
f 2/1/57 3/32/63 35/34/64 33/33/58
f 29/6/59 30/5/65 62/61/66 61/60/60
f 16/19/61 17/18/3 49/48/6 48/47/62
f 3/32/63 4/31/7 36/35/10 35/34/64
f 30/5/65 31/4/11 63/62/14 62/61/66
